<svg xmlns="http://www.w3.org/2000/svg" width="140" height="46" fill="none"><g clip-path="url(#a)"><path fill="#212121" d="M117.484 1.013h-94c-12.15 0-22 9.85-22 22s9.85 22 22 22h94c12.151 0 22-9.85 22-22s-9.849-22-22-22Z"/><path fill="#fff" d="m66.507 16.283 1.41-4.96h.684l-.395 1.928-1.519 5.18h-.678l.498-2.148Zm-1.46-4.96 1.123 4.862.337 2.247h-.674l-1.724-7.11h.938Zm5.38 4.857 1.1-4.858h.942l-1.719 7.11h-.674l.352-2.252Zm-1.723-4.858 1.372 4.961.498 2.148h-.678l-1.465-5.18-.4-1.929h.673ZM76.326 17.528v-2.72c0-.208-.042-.389-.127-.542a.831.831 0 0 0-.37-.36 1.345 1.345 0 0 0-.616-.128c-.228 0-.428.04-.6.117-.17.078-.303.181-.401.308a.674.674 0 0 0-.142.41h-.903c0-.189.049-.376.147-.561.097-.186.237-.354.42-.503.185-.153.406-.274.663-.362.26-.09.55-.136.87-.136.384 0 .722.065 1.015.195.296.13.528.327.694.59.169.261.254.588.254.982v2.461c0 .176.014.363.043.562.033.198.08.37.142.512v.078h-.942a1.695 1.695 0 0 1-.108-.415 3.352 3.352 0 0 1-.039-.488Zm.156-2.3.01.635h-.913c-.257 0-.487.021-.688.064-.202.039-.372.099-.508.18a.816.816 0 0 0-.42.733.93.93 0 0 0 .112.454.816.816 0 0 0 .337.327c.153.078.34.117.562.117a1.525 1.525 0 0 0 1.235-.605.924.924 0 0 0 .205-.494l.386.435a1.312 1.312 0 0 1-.186.454 2.171 2.171 0 0 1-1 .855 1.94 1.94 0 0 1-.772.146c-.358 0-.672-.07-.943-.21a1.611 1.611 0 0 1-.625-.561 1.486 1.486 0 0 1-.22-.796c0-.284.056-.532.167-.747.11-.218.27-.4.478-.542.209-.147.46-.258.752-.332a3.97 3.97 0 0 1 .982-.113h1.05ZM80.862 13.148v.694h-2.856v-.694h2.856Zm-1.89-1.284h.904v5.259c0 .179.028.314.083.405a.396.396 0 0 0 .215.18.89.89 0 0 0 .283.045c.075 0 .153-.007.235-.02.084-.016.148-.03.19-.039l.005.738a2.12 2.12 0 0 1-.283.063 2.152 2.152 0 0 1-.415.034c-.222 0-.425-.044-.61-.132a.982.982 0 0 1-.445-.44c-.108-.207-.161-.488-.161-.839v-5.254ZM84.036 17.787c.215 0 .413-.044.596-.132.182-.088.332-.208.449-.361.117-.157.184-.334.2-.532h.86a1.612 1.612 0 0 1-.318.874 2.166 2.166 0 0 1-.757.649 2.197 2.197 0 0 1-1.03.244c-.397 0-.744-.07-1.04-.21a2.062 2.062 0 0 1-.732-.576 2.573 2.573 0 0 1-.435-.84 3.544 3.544 0 0 1-.141-1.01v-.206c0-.354.047-.69.141-1.005.098-.32.243-.601.435-.845a2.06 2.06 0 0 1 .732-.576 2.41 2.41 0 0 1 1.04-.21c.413 0 .775.084 1.084.254.31.165.552.393.728.683.179.287.276.612.293.977h-.86a1.301 1.301 0 0 0-.185-.591 1.158 1.158 0 0 0-.43-.42 1.201 1.201 0 0 0-.63-.161c-.277 0-.51.055-.698.166a1.223 1.223 0 0 0-.444.44 2.05 2.05 0 0 0-.235.61 3.355 3.355 0 0 0-.068.678v.205c0 .232.023.46.068.684.046.225.122.428.23.61.11.183.258.33.444.44.189.107.423.16.703.16ZM88.06 10.931v7.5h-.904v-7.5h.904Zm-.215 4.659-.376-.015c.003-.361.057-.695.161-1.001.104-.31.25-.578.44-.806a1.957 1.957 0 0 1 1.547-.717c.26 0 .495.035.703.107.209.068.386.18.533.332.15.153.263.352.341.596.078.24.117.535.117.883v3.463h-.908V14.96c0-.277-.04-.498-.122-.664a.75.75 0 0 0-.356-.366 1.28 1.28 0 0 0-.576-.118c-.225 0-.43.048-.615.142-.183.094-.34.224-.474.39-.13.167-.233.357-.308.572a2.088 2.088 0 0 0-.107.674ZM94.904 15.848v-.112c0-.38.056-.734.166-1.06.11-.328.27-.613.479-.854.208-.244.46-.433.757-.566a2.35 2.35 0 0 1 .996-.205c.37 0 .704.068 1 .205.3.133.554.322.762.566.212.241.373.526.484.855.11.325.166.678.166 1.06v.111c0 .381-.055.734-.166 1.06-.11.325-.272.61-.484.854-.208.241-.46.43-.756.567-.293.133-.625.2-.997.2a2.41 2.41 0 0 1-1-.2 2.265 2.265 0 0 1-.762-.567 2.58 2.58 0 0 1-.479-.854 3.271 3.271 0 0 1-.166-1.06Zm.904-.112v.112c0 .264.03.513.092.748.062.23.155.436.279.615.127.179.284.32.473.425.19.1.409.15.66.15.247 0 .463-.05.649-.15.189-.105.345-.246.469-.425a1.97 1.97 0 0 0 .278-.615 2.78 2.78 0 0 0 .098-.748v-.112c0-.26-.033-.506-.098-.737a1.902 1.902 0 0 0-.283-.62 1.346 1.346 0 0 0-.469-.43 1.315 1.315 0 0 0-.654-.156c-.248 0-.466.052-.655.156a1.405 1.405 0 0 0-.468.43c-.124.179-.217.386-.279.62a2.844 2.844 0 0 0-.092.737ZM101.751 14.276v4.155h-.903v-5.283h.855l.048 1.128Zm-.214 1.314-.376-.015c.003-.361.057-.695.161-1.001.104-.31.25-.578.439-.806a1.964 1.964 0 0 1 1.548-.717c.26 0 .495.035.703.107.208.068.386.18.532.332.15.153.264.352.342.596.078.24.117.535.117.883v3.463h-.908V14.96c0-.277-.041-.498-.122-.664a.75.75 0 0 0-.356-.366 1.286 1.286 0 0 0-.577-.118 1.34 1.34 0 0 0-.615.142c-.182.094-.34.224-.473.39a1.952 1.952 0 0 0-.308.572 2.077 2.077 0 0 0-.107.674ZM67.62 33.612V29.5l-3.68-6.784h1.663l2.817 5.28 2.88-5.28h1.6L69.22 29.5l-.017 4.112H67.62ZM76.1 33.852c-1.099 0-1.947-.347-2.544-1.04-.597-.694-.896-1.67-.896-2.928 0-1.248.299-2.219.896-2.912.597-.694 1.445-1.04 2.544-1.04s1.947.346 2.544 1.04c.597.693.896 1.664.896 2.912 0 1.258-.299 2.234-.896 2.928-.597.693-1.445 1.04-2.544 1.04Zm0-1.296c.63 0 1.11-.23 1.44-.688.341-.47.512-1.131.512-1.984 0-.832-.17-1.483-.512-1.952-.33-.47-.81-.704-1.44-.704-.618 0-1.099.234-1.44.704-.341.469-.512 1.12-.512 1.952 0 .853.17 1.514.512 1.984.341.458.822.688 1.44.688ZM84.035 33.836c-.874 0-1.552-.262-2.032-.784-.48-.523-.72-1.296-.72-2.32v-4.56h1.488v4.24c0 .362.032.698.096 1.008.075.309.219.56.432.752.224.192.555.288.992.288.555 0 .981-.182 1.28-.544.31-.363.464-.912.464-1.648v-4.096h1.488v7.44H86.18v-.832c-.256.352-.57.618-.944.8-.362.17-.763.256-1.2.256ZM91.278 33.612V24.14h-3.425v-1.424h8.672l-.464 1.424h-3.184v9.472h-1.6ZM99.205 33.836c-.874 0-1.552-.262-2.032-.784-.48-.523-.72-1.296-.72-2.32v-4.56h1.488v4.24c0 .362.032.698.096 1.008.075.309.219.56.432.752.224.192.555.288.992.288.555 0 .981-.182 1.28-.544.309-.363.464-.912.464-1.648v-4.096h1.488v7.44h-1.344v-.832a2.517 2.517 0 0 1-.944.8c-.363.17-.763.256-1.2.256ZM108.766 33.836c-.95 0-1.686-.342-2.208-1.024v.8h-1.408V22.716h1.488v4.192c.522-.64 1.232-.96 2.128-.96.981 0 1.754.346 2.32 1.04.576.682.864 1.648.864 2.896 0 1.258-.288 2.234-.864 2.928-.566.682-1.339 1.024-2.32 1.024Zm-.224-1.296c.608 0 1.077-.224 1.408-.672.341-.459.512-1.12.512-1.984 0-.822-.171-1.467-.512-1.936-.331-.47-.8-.704-1.408-.704-.608 0-1.078.234-1.408.704-.331.469-.496 1.114-.496 1.936 0 .853.165 1.509.496 1.968.33.458.8.688 1.408.688ZM116.883 33.836c-1.099 0-1.958-.342-2.576-1.024-.608-.694-.912-1.643-.912-2.848 0-.779.128-1.467.384-2.064.256-.608.629-1.083 1.12-1.424.49-.352 1.098-.528 1.824-.528 1.056 0 1.85.341 2.384 1.024.533.672.8 1.584.8 2.736 0 .128-.011.245-.032.352-.011.106-.022.229-.032.368h-4.992c.053.757.272 1.306.656 1.648.394.341.917.512 1.568.512.341 0 .645-.048.912-.144.266-.107.554-.288.864-.544l.752.96a4.226 4.226 0 0 1-1.264.752c-.427.149-.912.224-1.456.224Zm-.144-6.64c-.587 0-1.035.197-1.344.592-.31.394-.491.922-.544 1.584h3.728c-.022-.683-.182-1.216-.48-1.6-.288-.384-.742-.576-1.36-.576Z"/><path fill="red" d="M37.504 35.246s11.506 0 14.36-.77a4.621 4.621 0 0 0 3.239-3.253c.784-2.854.784-8.857.784-8.857s0-5.965-.784-8.793c-.425-1.594-1.633-2.828-3.24-3.252-2.853-.784-14.359-.784-14.359-.784s-11.48 0-14.32.784a4.656 4.656 0 0 0-3.265 3.252c-.759 2.828-.759 8.793-.759 8.793s0 6.003.759 8.857c.45 1.555 1.684 2.815 3.265 3.252 2.84.771 14.32.771 14.32.771Z"/><path fill="#fff" d="m43.38 22.366-9.527-5.49v11.017l9.526-5.527Z"/><path stroke="#212121" d="M117.484 1.013h-94c-12.15 0-22 9.85-22 22s9.85 22 22 22h94c12.151 0 22-9.85 22-22s-9.849-22-22-22Z"/></g><defs><clipPath id="a"><path fill="#fff" d="M0 0h140v46H0z"/></clipPath></defs></svg>