<svg width="40" height="41" viewBox="0 0 40 41" fill="none" xmlns="http://www.w3.org/2000/svg">
<g id="emergency_40dp_FILL0_wght400_GRAD0_opsz40 1">
<g id="Vector">
<path d="M17.5279 35.0554V24.8054L8.66669 29.9304L6.16669 25.6667L15.0554 20.5L6.1946 15.375L8.66669 11.1112L17.5279 16.2362V5.94458H22.4721V16.2362L31.3334 11.1112L33.8054 15.375L24.9446 20.5L33.8334 25.6667L31.3334 29.9304L22.4721 24.8054V35.0554H17.5279Z" fill="#082F49"/>
<path d="M17.5279 35.0554V24.8054L8.66669 29.9304L6.16669 25.6667L15.0554 20.5L6.1946 15.375L8.66669 11.1112L17.5279 16.2362V5.94458H22.4721V16.2362L31.3334 11.1112L33.8054 15.375L24.9446 20.5L33.8334 25.6667L31.3334 29.9304L22.4721 24.8054V35.0554H17.5279Z" fill="#3B82F6"/>
</g>
</g>
</svg>
