<svg width="24" height="24" viewBox="0 0 24 24" fill="none" xmlns="http://www.w3.org/2000/svg">
<path d="M7.44427 1.07702C6.27387 1.1322 5.47462 1.31902 4.77584 1.59347C4.05277 1.87534 3.43979 2.25347 2.82993 2.86553C2.22016 3.47759 1.84451 4.09094 1.56474 4.81529C1.29396 5.51545 1.11044 6.31542 1.05874 7.48647C1.00704 8.65752 0.995583 9.034 1.00136 12.0212C1.00704 15.0083 1.02024 15.3828 1.07698 16.5563C1.1329 17.7264 1.31898 18.5255 1.59353 19.2244C1.87586 19.9476 2.25353 20.5603 2.86587 21.1704C3.47811 21.7804 4.091 22.1551 4.817 22.4354C5.5166 22.7058 6.31677 22.8901 7.48763 22.9414C8.6585 22.9927 9.03534 23.0046 12.0217 22.9988C15.008 22.9932 15.384 22.9799 16.5572 22.9242C17.7305 22.8686 18.5253 22.6811 19.2245 22.4079C19.9477 22.125 20.5608 21.7479 21.1704 21.1354C21.78 20.5229 22.1554 19.9091 22.435 19.1844C22.706 18.4848 22.8902 17.6847 22.941 16.5147C22.9923 15.3405 23.0044 14.9657 22.9987 11.979C22.9929 8.9922 22.9795 8.61774 22.9238 7.44467C22.8682 6.27161 22.6818 5.47502 22.4075 4.7756C22.1248 4.05244 21.7475 3.44019 21.1355 2.82969C20.5234 2.21919 19.9091 1.84409 19.1847 1.56514C18.4846 1.29427 17.685 1.10974 16.5141 1.05914C15.3432 1.00854 14.9664 0.995432 11.979 1.0013C8.99152 1.00698 8.61752 1.01982 7.44427 1.07702ZM7.57279 20.9625C6.50028 20.9158 5.91792 20.7376 5.5298 20.5885C5.01592 20.3905 4.6498 20.1511 4.26306 19.768C3.87622 19.385 3.63871 19.0176 3.43805 18.5049C3.28735 18.1167 3.10585 17.535 3.05571 16.4625C3.00117 15.3034 2.98971 14.9553 2.98329 12.0185C2.97688 9.08175 2.98815 8.73406 3.03893 7.57447C3.08477 6.50288 3.26407 5.91988 3.41294 5.53195C3.61094 5.01742 3.84946 4.65194 4.23336 4.26547C4.61726 3.87891 4.98356 3.64085 5.4968 3.44019C5.88456 3.28885 6.46618 3.10891 7.53823 3.05785C8.69828 3.00285 9.04588 2.99185 11.9823 2.98543C14.9186 2.97902 15.2671 2.99002 16.4276 3.04117C17.4992 3.08773 18.0825 3.26529 18.47 3.41517C18.9841 3.61317 19.35 3.85095 19.7365 4.23559C20.123 4.62004 20.3613 4.98506 20.5619 5.4994C20.7135 5.88596 20.8935 6.46741 20.9441 7.54019C20.9993 8.70024 21.0118 9.04811 21.0171 11.9842C21.0224 14.9203 21.012 15.269 20.9611 16.4282C20.9144 17.5007 20.7366 18.0833 20.5871 18.4719C20.3891 18.9856 20.1505 19.3519 19.7663 19.7381C19.3823 20.1245 19.0164 20.3625 18.5029 20.5632C18.1157 20.7143 17.5333 20.8947 16.4622 20.9458C15.3021 21.0003 14.9545 21.0118 12.017 21.0182C9.07952 21.0246 8.73284 21.0127 7.57279 20.9625ZM16.5403 6.12091C16.5407 6.382 16.6186 6.6371 16.764 6.85395C16.9095 7.07079 17.1159 7.23963 17.3573 7.33912C17.5987 7.43861 17.8642 7.46428 18.1202 7.41287C18.3762 7.36147 18.6112 7.23531 18.7954 7.05034C18.9797 6.86537 19.105 6.62991 19.1554 6.37373C19.2059 6.11755 19.1792 5.85217 19.0788 5.61115C18.9784 5.37012 18.8088 5.16429 18.5914 5.01967C18.3741 4.87506 18.1187 4.79816 17.8576 4.7987C17.5076 4.79943 17.1722 4.93912 16.9252 5.18707C16.6782 5.43502 16.5397 5.77091 16.5403 6.12091ZM6.35197 12.0111C6.35811 15.1307 8.8917 17.6538 12.0106 17.648C15.1296 17.642 17.6545 15.1087 17.6487 11.9891C17.6427 8.86945 15.1086 6.34558 11.9891 6.35172C8.8697 6.35787 6.3461 8.89182 6.35197 12.0111ZM8.33335 12.0071C8.33192 11.2819 8.54557 10.5726 8.94727 9.96882C9.34898 9.36505 9.9207 8.89395 10.5901 8.6151C11.2596 8.33626 11.9967 8.26218 12.7082 8.40225C13.4198 8.54232 14.0738 8.89024 14.5876 9.40201C15.1014 9.91378 15.4519 10.5664 15.5948 11.2774C15.7377 11.9884 15.6666 12.7258 15.3904 13.3963C15.1142 14.0669 14.6454 14.6405 14.0432 15.0446C13.441 15.4487 12.7326 15.6651 12.0074 15.6666C11.5258 15.6676 11.0488 15.5737 10.6036 15.3904C10.1583 15.207 9.75352 14.9377 9.41234 14.5979C9.07117 14.2581 8.80028 13.8544 8.61514 13.4098C8.43001 12.9653 8.33425 12.4887 8.33335 12.0071Z" fill="#003558"/>
</svg>
