<svg width="24" height="24" viewBox="0 0 24 24" fill="none" xmlns="http://www.w3.org/2000/svg">
<path d="M12.6123 1.01833C13.8131 1 15.0048 1.00917 16.1964 1C16.2698 2.40248 16.7739 3.83246 17.8006 4.82245C18.8272 5.83994 20.2755 6.30743 21.6872 6.46326V10.1574C20.3672 10.1116 19.038 9.83656 17.8372 9.26823C17.3147 9.0299 16.8289 8.7274 16.3522 8.41574C16.3431 11.0924 16.3614 13.769 16.3339 16.4365C16.2606 17.7198 15.8389 18.9939 15.0964 20.0481C13.8956 21.8081 11.8148 22.9539 9.679 22.9906C8.36818 23.0639 7.05737 22.7064 5.93905 22.0464C4.0874 20.9556 2.78575 18.9573 2.59326 16.8123C2.57492 16.354 2.56576 15.8956 2.58409 15.4465C2.74909 13.7048 3.61074 12.0365 4.94906 10.8999C6.47071 9.57989 8.59735 8.9474 10.5865 9.32323C10.6048 10.6799 10.5498 12.0365 10.5498 13.3932C9.64233 13.0998 8.57901 13.1823 7.78152 13.7323C7.20403 14.1082 6.76404 14.6857 6.53487 15.3365C6.34238 15.804 6.39738 16.3173 6.40654 16.8123C6.62654 18.3156 8.07485 19.5806 9.61483 19.4431C10.6415 19.4339 11.6223 18.8381 12.154 17.9673C12.3281 17.6648 12.5206 17.3531 12.5298 16.9956C12.6215 15.3548 12.5848 13.7232 12.594 12.0824C12.6031 8.38824 12.5848 4.70329 12.6123 1.01833Z" fill="#003558"/>
</svg>
