<svg width="24" height="24" viewBox="0 0 24 24" fill="none" xmlns="http://www.w3.org/2000/svg">
<path d="M23 5.23497C22.1916 5.59306 21.322 5.83198 20.4048 5.94503C21.3373 5.39141 22.0547 4.50842 22.3914 3.46534C21.5188 3.9768 20.5521 4.3526 19.5237 4.55059C18.7024 3.67983 17.531 3.13965 16.2331 3.13965C13.74 3.13965 11.7192 5.1427 11.7192 7.61261C11.7192 7.96214 11.7602 8.3025 11.8372 8.63308C8.08647 8.44487 4.75985 6.6618 2.53437 3.95603C2.14329 4.61719 1.92331 5.39141 1.92331 6.20839C1.92331 7.7611 2.7183 9.12804 3.93064 9.93342C3.19065 9.91081 2.49404 9.70488 1.8842 9.37491C1.8842 9.38835 1.8842 9.40852 1.8842 9.42746C1.8842 11.5973 3.44057 13.4042 5.50351 13.8155C5.12649 13.9188 4.72808 13.9762 4.31745 13.9762C4.02597 13.9762 3.74183 13.9432 3.46685 13.8937C4.04125 15.667 5.70761 16.9631 7.68194 17.0016C6.13718 18.1992 4.19157 18.9166 2.07608 18.9166C1.71066 18.9166 1.35319 18.8958 1 18.8531C2.99878 20.1186 5.37214 20.8604 7.91965 20.8604C16.2209 20.8604 20.7623 14.0434 20.7623 8.12957C20.7623 7.93586 20.7562 7.74277 20.747 7.55211C21.6331 6.92639 22.3969 6.1369 23 5.23497Z" fill="#003558"/>
</svg>
