<svg width="140" height="46" viewBox="0 0 140 46" fill="none" xmlns="http://www.w3.org/2000/svg">
<g id="watch-on-yt-1 1" clip-path="url(#clip0_125_481)">
<g id="Clip path group">
<mask id="mask0_125_481" style="mask-type:luminance" maskUnits="userSpaceOnUse" x="0" y="-1" width="140" height="47">
<g id="a">
<path id="Vector" d="M0 -0.5H140V45.5H0V-0.5Z" fill="white"/>
</g>
</mask>
<g mask="url(#mask0_125_481)">
<g id="Group">
<g id="Vector_2">
<path d="M66.507 15.783L67.917 10.823H68.601L68.206 12.751L66.687 17.931H66.009L66.507 15.783ZM65.047 10.823L66.17 15.685L66.507 17.932H65.833L64.109 10.822H65.047V10.823ZM70.427 15.68L71.527 10.822H72.469L70.75 17.932H70.076L70.427 15.68ZM68.704 10.822L70.076 15.783L70.574 17.931H69.896L68.431 12.751L68.031 10.822H68.704ZM76.326 17.028V14.308C76.3308 14.1194 76.2871 13.9328 76.199 13.766C76.117 13.6098 75.9874 13.4837 75.829 13.406C75.6367 13.3152 75.4256 13.2714 75.213 13.278C74.985 13.278 74.785 13.318 74.613 13.395C74.443 13.473 74.31 13.576 74.212 13.703C74.1208 13.8203 74.0709 13.9644 74.07 14.113H73.167C73.167 13.924 73.216 13.737 73.314 13.552C73.418 13.3573 73.561 13.1861 73.734 13.049C73.919 12.896 74.14 12.775 74.397 12.687C74.657 12.597 74.947 12.551 75.267 12.551C75.651 12.551 75.989 12.616 76.282 12.746C76.578 12.876 76.81 13.073 76.976 13.336C77.145 13.597 77.23 13.924 77.23 14.318V16.779C77.23 16.955 77.244 17.142 77.273 17.341C77.306 17.539 77.353 17.711 77.415 17.853V17.931H76.473C76.4196 17.7978 76.3833 17.6583 76.365 17.516C76.3401 17.3545 76.3271 17.1914 76.326 17.028ZM76.482 14.728L76.492 15.363H75.579C75.322 15.363 75.092 15.384 74.891 15.427C74.7126 15.4574 74.5407 15.5183 74.383 15.607C74.2528 15.6792 74.1448 15.7857 74.0708 15.9149C73.9967 16.0441 73.9595 16.1911 73.963 16.34C73.9611 16.4984 73.9996 16.6547 74.075 16.794C74.1529 16.9337 74.2701 17.0474 74.412 17.121C74.565 17.199 74.752 17.238 74.974 17.238C75.2129 17.2409 75.4491 17.1877 75.6636 17.0826C75.8781 16.9775 76.0649 16.8235 76.209 16.633C76.3245 16.4921 76.3959 16.3203 76.414 16.139L76.8 16.574C76.7671 16.7357 76.704 16.8897 76.614 17.028C76.3771 17.4096 76.0277 17.7083 75.614 17.883C75.3693 17.9838 75.1066 18.0335 74.842 18.029C74.484 18.029 74.17 17.959 73.899 17.819C73.6447 17.6905 73.4291 17.497 73.274 17.258C73.1269 17.0188 73.0507 16.7428 73.054 16.462C73.054 16.178 73.11 15.93 73.221 15.715C73.331 15.497 73.491 15.315 73.699 15.173C73.9273 15.0173 74.1821 14.9048 74.451 14.841C74.7723 14.7626 75.1022 14.7246 75.433 14.728H76.482ZM80.862 12.648V13.342H78.006V12.648H80.862ZM78.972 11.364H79.876V16.623C79.876 16.802 79.904 16.937 79.959 17.028C80.0063 17.1122 80.0828 17.1762 80.174 17.208C80.2653 17.2382 80.3609 17.2534 80.457 17.253C80.532 17.253 80.61 17.246 80.692 17.233C80.776 17.217 80.84 17.203 80.882 17.194L80.887 17.932C80.7942 17.9594 80.6997 17.9805 80.604 17.995C80.4671 18.0197 80.3281 18.0311 80.189 18.029C79.9783 18.0315 79.7698 17.9863 79.579 17.897C79.3867 17.8028 79.2304 17.6483 79.134 17.457C79.026 17.25 78.973 16.969 78.973 16.618L78.972 11.364ZM84.036 17.287C84.251 17.287 84.449 17.243 84.632 17.155C84.814 17.067 84.964 16.947 85.081 16.794C85.198 16.637 85.265 16.46 85.281 16.262H86.141C86.1232 16.5782 86.0126 16.8822 85.823 17.136C85.6246 17.4083 85.3654 17.6305 85.066 17.785C84.7477 17.9491 84.3941 18.0328 84.036 18.029C83.678 18.0371 83.3228 17.9654 82.996 17.819C82.7113 17.6853 82.4609 17.4883 82.264 17.243C82.0683 16.9923 81.9208 16.7075 81.829 16.403C81.7336 16.0749 81.6861 15.7347 81.688 15.393V15.187C81.688 14.833 81.735 14.497 81.829 14.182C81.927 13.862 82.072 13.581 82.264 13.337C82.4608 13.0916 82.7112 12.8946 82.996 12.761C83.3228 12.6146 83.678 12.5429 84.036 12.551C84.449 12.551 84.811 12.635 85.12 12.805C85.43 12.97 85.672 13.198 85.848 13.488C86.027 13.775 86.124 14.1 86.141 14.465H85.281C85.2678 14.256 85.2043 14.0532 85.096 13.874C84.9921 13.6986 84.8438 13.5537 84.666 13.454C84.4748 13.3434 84.2568 13.2877 84.036 13.293C83.759 13.293 83.526 13.348 83.338 13.459C83.1544 13.5647 83.0014 13.7163 82.894 13.899C82.7835 14.0885 82.7042 14.2944 82.659 14.509C82.6134 14.7321 82.5906 14.9593 82.591 15.187V15.392C82.591 15.624 82.614 15.852 82.659 16.076C82.705 16.301 82.781 16.504 82.889 16.686C82.999 16.869 83.147 17.016 83.333 17.126C83.522 17.233 83.756 17.286 84.036 17.286V17.287ZM88.06 10.431V17.931H87.156V10.431H88.06ZM87.845 15.09L87.469 15.075C87.472 14.714 87.526 14.38 87.63 14.074C87.734 13.764 87.88 13.496 88.07 13.268C88.2571 13.0395 88.4934 12.8563 88.7613 12.7322C89.0292 12.608 89.3218 12.5461 89.617 12.551C89.877 12.551 90.112 12.586 90.32 12.658C90.529 12.726 90.706 12.838 90.853 12.99C91.003 13.143 91.116 13.342 91.194 13.586C91.272 13.826 91.311 14.121 91.311 14.469V17.932H90.403V14.46C90.403 14.183 90.363 13.962 90.281 13.796C90.2088 13.6361 90.0828 13.5066 89.925 13.43C89.7448 13.3465 89.5476 13.3061 89.349 13.312C89.124 13.312 88.919 13.36 88.734 13.454C88.551 13.548 88.394 13.678 88.26 13.844C88.13 14.011 88.027 14.201 87.952 14.416C87.8796 14.6333 87.8435 14.861 87.845 15.09ZM94.904 15.348V15.236C94.904 14.856 94.96 14.502 95.07 14.176C95.18 13.848 95.34 13.563 95.549 13.322C95.757 13.078 96.009 12.889 96.306 12.756C96.6191 12.6158 96.959 12.5458 97.302 12.551C97.672 12.551 98.006 12.619 98.302 12.756C98.602 12.889 98.856 13.078 99.064 13.322C99.276 13.563 99.437 13.848 99.548 14.177C99.658 14.502 99.714 14.855 99.714 15.237V15.348C99.714 15.729 99.659 16.082 99.548 16.408C99.4442 16.7216 99.2798 17.0118 99.064 17.262C98.856 17.503 98.604 17.692 98.308 17.829C98.015 17.962 97.683 18.029 97.311 18.029C96.9672 18.0344 96.6263 17.9662 96.311 17.829C96.0198 17.696 95.7601 17.5027 95.549 17.262C95.3363 17.0105 95.1737 16.7206 95.07 16.408C94.9567 16.0662 94.9006 15.7081 94.904 15.348ZM95.808 15.236V15.348C95.808 15.612 95.838 15.861 95.9 16.096C95.962 16.326 96.055 16.532 96.179 16.711C96.306 16.89 96.463 17.031 96.652 17.136C96.842 17.236 97.061 17.286 97.312 17.286C97.559 17.286 97.775 17.236 97.961 17.136C98.15 17.031 98.306 16.89 98.43 16.711C98.5574 16.5235 98.6514 16.3155 98.708 16.096C98.7745 15.8523 98.8075 15.6006 98.806 15.348V15.236C98.806 14.976 98.773 14.73 98.708 14.499C98.6518 14.277 98.5559 14.0669 98.425 13.879C98.3053 13.7002 98.1445 13.5528 97.956 13.449C97.7552 13.3412 97.5298 13.2874 97.302 13.293C97.054 13.293 96.836 13.345 96.647 13.449C96.4602 13.5547 96.3001 13.7018 96.179 13.879C96.0506 14.0678 95.9562 14.2777 95.9 14.499C95.8373 14.7396 95.8063 14.9874 95.808 15.236ZM101.751 13.776V17.931H100.848V12.648H101.703L101.751 13.776ZM101.537 15.09L101.161 15.075C101.164 14.714 101.218 14.38 101.322 14.074C101.426 13.764 101.572 13.496 101.761 13.268C101.949 13.0398 102.185 12.8568 102.453 12.7326C102.721 12.6085 103.014 12.5464 103.309 12.551C103.569 12.551 103.804 12.586 104.012 12.658C104.22 12.726 104.398 12.838 104.544 12.99C104.694 13.143 104.808 13.342 104.886 13.586C104.964 13.826 105.003 14.121 105.003 14.469V17.932H104.095V14.46C104.095 14.183 104.054 13.962 103.973 13.796C103.901 13.6361 103.775 13.5066 103.617 13.43C103.436 13.3466 103.239 13.3062 103.04 13.312C102.827 13.3097 102.616 13.3584 102.425 13.454C102.242 13.5491 102.08 13.682 101.952 13.844C101.818 14.0161 101.714 14.2095 101.644 14.416C101.571 14.6332 101.535 14.861 101.537 15.09ZM67.62 33.112V29L63.94 22.216H65.603L68.42 27.496L71.3 22.216H72.9L69.22 29L69.203 33.112H67.62ZM76.1 33.352C75.001 33.352 74.153 33.005 73.556 32.312C72.959 31.618 72.66 30.642 72.66 29.384C72.66 28.136 72.959 27.165 73.556 26.472C74.153 25.778 75.001 25.432 76.1 25.432C77.199 25.432 78.047 25.778 78.644 26.472C79.241 27.165 79.54 28.136 79.54 29.384C79.54 30.642 79.241 31.618 78.644 32.312C78.047 33.005 77.199 33.352 76.1 33.352ZM76.1 32.056C76.73 32.056 77.21 31.826 77.54 31.368C77.881 30.898 78.052 30.237 78.052 29.384C78.052 28.552 77.882 27.901 77.54 27.432C77.21 26.962 76.73 26.728 76.1 26.728C75.482 26.728 75.001 26.962 74.66 27.432C74.319 27.901 74.148 28.552 74.148 29.384C74.148 30.237 74.318 30.898 74.66 31.368C75.001 31.826 75.482 32.056 76.1 32.056ZM84.035 33.336C83.161 33.336 82.483 33.074 82.003 32.552C81.523 32.029 81.283 31.256 81.283 30.232V25.672H82.771V29.912C82.771 30.274 82.803 30.61 82.867 30.92C82.942 31.229 83.086 31.48 83.299 31.672C83.523 31.864 83.854 31.96 84.291 31.96C84.846 31.96 85.272 31.778 85.571 31.416C85.881 31.053 86.035 30.504 86.035 29.768V25.672H87.523V33.112H86.18V32.28C85.924 32.632 85.61 32.898 85.236 33.08C84.874 33.25 84.472 33.336 84.035 33.336ZM91.278 33.112V23.64H87.853V22.216H96.525L96.061 23.64H92.877V33.112H91.278ZM99.205 33.336C98.331 33.336 97.653 33.074 97.173 32.552C96.693 32.029 96.453 31.256 96.453 30.232V25.672H97.941V29.912C97.941 30.274 97.973 30.61 98.037 30.92C98.112 31.229 98.256 31.48 98.469 31.672C98.693 31.864 99.024 31.96 99.461 31.96C100.016 31.96 100.442 31.778 100.741 31.416C101.05 31.053 101.205 30.504 101.205 29.768V25.672H102.693V33.112H101.349V32.28C101.106 32.6211 100.781 32.896 100.405 33.08C100.042 33.25 99.642 33.336 99.205 33.336ZM108.766 33.336C107.816 33.336 107.08 32.994 106.558 32.312V33.112H105.15V22.216H106.638V26.408C107.16 25.768 107.87 25.448 108.766 25.448C109.747 25.448 110.52 25.794 111.086 26.488C111.662 27.17 111.95 28.136 111.95 29.384C111.95 30.642 111.662 31.618 111.086 32.312C110.52 32.994 109.747 33.336 108.766 33.336ZM108.542 32.04C109.15 32.04 109.619 31.816 109.95 31.368C110.291 30.909 110.462 30.248 110.462 29.384C110.462 28.562 110.291 27.917 109.95 27.448C109.619 26.978 109.15 26.744 108.542 26.744C107.934 26.744 107.464 26.978 107.134 27.448C106.803 27.917 106.638 28.562 106.638 29.384C106.638 30.237 106.803 30.893 107.134 31.352C107.464 31.81 107.934 32.04 108.542 32.04ZM116.883 33.336C115.784 33.336 114.925 32.994 114.307 32.312C113.699 31.618 113.395 30.669 113.395 29.464C113.395 28.685 113.523 27.997 113.779 27.4C114.035 26.792 114.408 26.317 114.899 25.976C115.389 25.624 115.997 25.448 116.723 25.448C117.779 25.448 118.573 25.789 119.107 26.472C119.64 27.144 119.907 28.056 119.907 29.208C119.907 29.336 119.896 29.453 119.875 29.56C119.864 29.666 119.853 29.789 119.843 29.928H114.851C114.904 30.685 115.123 31.234 115.507 31.576C115.901 31.917 116.424 32.088 117.075 32.088C117.416 32.088 117.72 32.04 117.987 31.944C118.253 31.837 118.541 31.656 118.851 31.4L119.603 32.36C119.229 32.6826 118.801 32.9371 118.339 33.112C117.87 33.2679 117.377 33.3436 116.883 33.336ZM116.739 26.696C116.152 26.696 115.704 26.893 115.395 27.288C115.085 27.682 114.904 28.21 114.851 28.872H118.579C118.557 28.189 118.397 27.656 118.099 27.272C117.811 26.888 117.357 26.696 116.739 26.696Z" fill="white"/>
<path d="M66.507 15.783L67.917 10.823H68.601L68.206 12.751L66.687 17.931H66.009L66.507 15.783ZM65.047 10.823L66.17 15.685L66.507 17.932H65.833L64.109 10.822H65.047V10.823ZM70.427 15.68L71.527 10.822H72.469L70.75 17.932H70.076L70.427 15.68ZM68.704 10.822L70.076 15.783L70.574 17.931H69.896L68.431 12.751L68.031 10.822H68.704ZM76.326 17.028V14.308C76.3308 14.1194 76.2871 13.9328 76.199 13.766C76.117 13.6098 75.9874 13.4837 75.829 13.406C75.6367 13.3152 75.4256 13.2714 75.213 13.278C74.985 13.278 74.785 13.318 74.613 13.395C74.443 13.473 74.31 13.576 74.212 13.703C74.1208 13.8203 74.0709 13.9644 74.07 14.113H73.167C73.167 13.924 73.216 13.737 73.314 13.552C73.418 13.3573 73.561 13.1861 73.734 13.049C73.919 12.896 74.14 12.775 74.397 12.687C74.657 12.597 74.947 12.551 75.267 12.551C75.651 12.551 75.989 12.616 76.282 12.746C76.578 12.876 76.81 13.073 76.976 13.336C77.145 13.597 77.23 13.924 77.23 14.318V16.779C77.23 16.955 77.244 17.142 77.273 17.341C77.306 17.539 77.353 17.711 77.415 17.853V17.931H76.473C76.4196 17.7978 76.3833 17.6583 76.365 17.516C76.3401 17.3545 76.3271 17.1914 76.326 17.028ZM76.482 14.728L76.492 15.363H75.579C75.322 15.363 75.092 15.384 74.891 15.427C74.7126 15.4574 74.5407 15.5183 74.383 15.607C74.2528 15.6792 74.1448 15.7857 74.0708 15.9149C73.9967 16.0441 73.9595 16.1911 73.963 16.34C73.9611 16.4984 73.9996 16.6547 74.075 16.794C74.1529 16.9337 74.2701 17.0474 74.412 17.121C74.565 17.199 74.752 17.238 74.974 17.238C75.2129 17.2409 75.4491 17.1877 75.6636 17.0826C75.8781 16.9775 76.0649 16.8235 76.209 16.633C76.3245 16.4921 76.3959 16.3203 76.414 16.139L76.8 16.574C76.7671 16.7357 76.704 16.8897 76.614 17.028C76.3771 17.4096 76.0277 17.7083 75.614 17.883C75.3693 17.9838 75.1066 18.0335 74.842 18.029C74.484 18.029 74.17 17.959 73.899 17.819C73.6447 17.6905 73.4291 17.497 73.274 17.258C73.1269 17.0188 73.0507 16.7428 73.054 16.462C73.054 16.178 73.11 15.93 73.221 15.715C73.331 15.497 73.491 15.315 73.699 15.173C73.9273 15.0173 74.1821 14.9048 74.451 14.841C74.7723 14.7626 75.1022 14.7246 75.433 14.728H76.482ZM80.862 12.648V13.342H78.006V12.648H80.862ZM78.972 11.364H79.876V16.623C79.876 16.802 79.904 16.937 79.959 17.028C80.0063 17.1122 80.0828 17.1762 80.174 17.208C80.2653 17.2382 80.3609 17.2534 80.457 17.253C80.532 17.253 80.61 17.246 80.692 17.233C80.776 17.217 80.84 17.203 80.882 17.194L80.887 17.932C80.7942 17.9594 80.6997 17.9805 80.604 17.995C80.4671 18.0197 80.3281 18.0311 80.189 18.029C79.9783 18.0315 79.7698 17.9863 79.579 17.897C79.3867 17.8028 79.2304 17.6483 79.134 17.457C79.026 17.25 78.973 16.969 78.973 16.618L78.972 11.364ZM84.036 17.287C84.251 17.287 84.449 17.243 84.632 17.155C84.814 17.067 84.964 16.947 85.081 16.794C85.198 16.637 85.265 16.46 85.281 16.262H86.141C86.1232 16.5782 86.0126 16.8822 85.823 17.136C85.6246 17.4083 85.3654 17.6305 85.066 17.785C84.7477 17.9491 84.3941 18.0328 84.036 18.029C83.678 18.0371 83.3228 17.9654 82.996 17.819C82.7113 17.6853 82.4609 17.4883 82.264 17.243C82.0683 16.9923 81.9208 16.7075 81.829 16.403C81.7336 16.0749 81.6861 15.7347 81.688 15.393V15.187C81.688 14.833 81.735 14.497 81.829 14.182C81.927 13.862 82.072 13.581 82.264 13.337C82.4608 13.0916 82.7112 12.8946 82.996 12.761C83.3228 12.6146 83.678 12.5429 84.036 12.551C84.449 12.551 84.811 12.635 85.12 12.805C85.43 12.97 85.672 13.198 85.848 13.488C86.027 13.775 86.124 14.1 86.141 14.465H85.281C85.2678 14.256 85.2043 14.0532 85.096 13.874C84.9921 13.6986 84.8438 13.5537 84.666 13.454C84.4748 13.3434 84.2568 13.2877 84.036 13.293C83.759 13.293 83.526 13.348 83.338 13.459C83.1544 13.5647 83.0014 13.7163 82.894 13.899C82.7835 14.0885 82.7042 14.2944 82.659 14.509C82.6134 14.7321 82.5906 14.9593 82.591 15.187V15.392C82.591 15.624 82.614 15.852 82.659 16.076C82.705 16.301 82.781 16.504 82.889 16.686C82.999 16.869 83.147 17.016 83.333 17.126C83.522 17.233 83.756 17.286 84.036 17.286V17.287ZM88.06 10.431V17.931H87.156V10.431H88.06ZM87.845 15.09L87.469 15.075C87.472 14.714 87.526 14.38 87.63 14.074C87.734 13.764 87.88 13.496 88.07 13.268C88.2571 13.0395 88.4934 12.8563 88.7613 12.7322C89.0292 12.608 89.3218 12.5461 89.617 12.551C89.877 12.551 90.112 12.586 90.32 12.658C90.529 12.726 90.706 12.838 90.853 12.99C91.003 13.143 91.116 13.342 91.194 13.586C91.272 13.826 91.311 14.121 91.311 14.469V17.932H90.403V14.46C90.403 14.183 90.363 13.962 90.281 13.796C90.2088 13.6361 90.0828 13.5066 89.925 13.43C89.7448 13.3465 89.5476 13.3061 89.349 13.312C89.124 13.312 88.919 13.36 88.734 13.454C88.551 13.548 88.394 13.678 88.26 13.844C88.13 14.011 88.027 14.201 87.952 14.416C87.8796 14.6333 87.8435 14.861 87.845 15.09ZM94.904 15.348V15.236C94.904 14.856 94.96 14.502 95.07 14.176C95.18 13.848 95.34 13.563 95.549 13.322C95.757 13.078 96.009 12.889 96.306 12.756C96.6191 12.6158 96.959 12.5458 97.302 12.551C97.672 12.551 98.006 12.619 98.302 12.756C98.602 12.889 98.856 13.078 99.064 13.322C99.276 13.563 99.437 13.848 99.548 14.177C99.658 14.502 99.714 14.855 99.714 15.237V15.348C99.714 15.729 99.659 16.082 99.548 16.408C99.4442 16.7216 99.2798 17.0118 99.064 17.262C98.856 17.503 98.604 17.692 98.308 17.829C98.015 17.962 97.683 18.029 97.311 18.029C96.9672 18.0344 96.6263 17.9662 96.311 17.829C96.0198 17.696 95.7601 17.5027 95.549 17.262C95.3363 17.0105 95.1737 16.7206 95.07 16.408C94.9567 16.0662 94.9006 15.7081 94.904 15.348ZM95.808 15.236V15.348C95.808 15.612 95.838 15.861 95.9 16.096C95.962 16.326 96.055 16.532 96.179 16.711C96.306 16.89 96.463 17.031 96.652 17.136C96.842 17.236 97.061 17.286 97.312 17.286C97.559 17.286 97.775 17.236 97.961 17.136C98.15 17.031 98.306 16.89 98.43 16.711C98.5574 16.5235 98.6514 16.3155 98.708 16.096C98.7745 15.8523 98.8075 15.6006 98.806 15.348V15.236C98.806 14.976 98.773 14.73 98.708 14.499C98.6518 14.277 98.5559 14.0669 98.425 13.879C98.3053 13.7002 98.1445 13.5528 97.956 13.449C97.7552 13.3412 97.5298 13.2874 97.302 13.293C97.054 13.293 96.836 13.345 96.647 13.449C96.4602 13.5547 96.3001 13.7018 96.179 13.879C96.0506 14.0678 95.9562 14.2777 95.9 14.499C95.8373 14.7396 95.8063 14.9874 95.808 15.236ZM101.751 13.776V17.931H100.848V12.648H101.703L101.751 13.776ZM101.537 15.09L101.161 15.075C101.164 14.714 101.218 14.38 101.322 14.074C101.426 13.764 101.572 13.496 101.761 13.268C101.949 13.0398 102.185 12.8568 102.453 12.7326C102.721 12.6085 103.014 12.5464 103.309 12.551C103.569 12.551 103.804 12.586 104.012 12.658C104.22 12.726 104.398 12.838 104.544 12.99C104.694 13.143 104.808 13.342 104.886 13.586C104.964 13.826 105.003 14.121 105.003 14.469V17.932H104.095V14.46C104.095 14.183 104.054 13.962 103.973 13.796C103.901 13.6361 103.775 13.5066 103.617 13.43C103.436 13.3466 103.239 13.3062 103.04 13.312C102.827 13.3097 102.616 13.3584 102.425 13.454C102.242 13.5491 102.08 13.682 101.952 13.844C101.818 14.0161 101.714 14.2095 101.644 14.416C101.571 14.6332 101.535 14.861 101.537 15.09ZM67.62 33.112V29L63.94 22.216H65.603L68.42 27.496L71.3 22.216H72.9L69.22 29L69.203 33.112H67.62ZM76.1 33.352C75.001 33.352 74.153 33.005 73.556 32.312C72.959 31.618 72.66 30.642 72.66 29.384C72.66 28.136 72.959 27.165 73.556 26.472C74.153 25.778 75.001 25.432 76.1 25.432C77.199 25.432 78.047 25.778 78.644 26.472C79.241 27.165 79.54 28.136 79.54 29.384C79.54 30.642 79.241 31.618 78.644 32.312C78.047 33.005 77.199 33.352 76.1 33.352ZM76.1 32.056C76.73 32.056 77.21 31.826 77.54 31.368C77.881 30.898 78.052 30.237 78.052 29.384C78.052 28.552 77.882 27.901 77.54 27.432C77.21 26.962 76.73 26.728 76.1 26.728C75.482 26.728 75.001 26.962 74.66 27.432C74.319 27.901 74.148 28.552 74.148 29.384C74.148 30.237 74.318 30.898 74.66 31.368C75.001 31.826 75.482 32.056 76.1 32.056ZM84.035 33.336C83.161 33.336 82.483 33.074 82.003 32.552C81.523 32.029 81.283 31.256 81.283 30.232V25.672H82.771V29.912C82.771 30.274 82.803 30.61 82.867 30.92C82.942 31.229 83.086 31.48 83.299 31.672C83.523 31.864 83.854 31.96 84.291 31.96C84.846 31.96 85.272 31.778 85.571 31.416C85.881 31.053 86.035 30.504 86.035 29.768V25.672H87.523V33.112H86.18V32.28C85.924 32.632 85.61 32.898 85.236 33.08C84.874 33.25 84.472 33.336 84.035 33.336ZM91.278 33.112V23.64H87.853V22.216H96.525L96.061 23.64H92.877V33.112H91.278ZM99.205 33.336C98.331 33.336 97.653 33.074 97.173 32.552C96.693 32.029 96.453 31.256 96.453 30.232V25.672H97.941V29.912C97.941 30.274 97.973 30.61 98.037 30.92C98.112 31.229 98.256 31.48 98.469 31.672C98.693 31.864 99.024 31.96 99.461 31.96C100.016 31.96 100.442 31.778 100.741 31.416C101.05 31.053 101.205 30.504 101.205 29.768V25.672H102.693V33.112H101.349V32.28C101.106 32.6211 100.781 32.896 100.405 33.08C100.042 33.25 99.642 33.336 99.205 33.336ZM108.766 33.336C107.816 33.336 107.08 32.994 106.558 32.312V33.112H105.15V22.216H106.638V26.408C107.16 25.768 107.87 25.448 108.766 25.448C109.747 25.448 110.52 25.794 111.086 26.488C111.662 27.17 111.95 28.136 111.95 29.384C111.95 30.642 111.662 31.618 111.086 32.312C110.52 32.994 109.747 33.336 108.766 33.336ZM108.542 32.04C109.15 32.04 109.619 31.816 109.95 31.368C110.291 30.909 110.462 30.248 110.462 29.384C110.462 28.562 110.291 27.917 109.95 27.448C109.619 26.978 109.15 26.744 108.542 26.744C107.934 26.744 107.464 26.978 107.134 27.448C106.803 27.917 106.638 28.562 106.638 29.384C106.638 30.237 106.803 30.893 107.134 31.352C107.464 31.81 107.934 32.04 108.542 32.04ZM116.883 33.336C115.784 33.336 114.925 32.994 114.307 32.312C113.699 31.618 113.395 30.669 113.395 29.464C113.395 28.685 113.523 27.997 113.779 27.4C114.035 26.792 114.408 26.317 114.899 25.976C115.389 25.624 115.997 25.448 116.723 25.448C117.779 25.448 118.573 25.789 119.107 26.472C119.64 27.144 119.907 28.056 119.907 29.208C119.907 29.336 119.896 29.453 119.875 29.56C119.864 29.666 119.853 29.789 119.843 29.928H114.851C114.904 30.685 115.123 31.234 115.507 31.576C115.901 31.917 116.424 32.088 117.075 32.088C117.416 32.088 117.72 32.04 117.987 31.944C118.253 31.837 118.541 31.656 118.851 31.4L119.603 32.36C119.229 32.6826 118.801 32.9371 118.339 33.112C117.87 33.2679 117.377 33.3436 116.883 33.336ZM116.739 26.696C116.152 26.696 115.704 26.893 115.395 27.288C115.085 27.682 114.904 28.21 114.851 28.872H118.579C118.557 28.189 118.397 27.656 118.099 27.272C117.811 26.888 117.357 26.696 116.739 26.696Z" fill="#003558"/>
</g>
<path id="Vector_3" d="M37.504 34.746C37.504 34.746 49.01 34.746 51.864 33.976C52.6405 33.763 53.3479 33.3507 53.916 32.7801C54.4841 32.2095 54.8933 31.5004 55.103 30.723C55.887 27.869 55.887 21.866 55.887 21.866C55.887 21.866 55.887 15.901 55.103 13.073C54.678 11.479 53.47 10.245 51.863 9.82099C49.01 9.03699 37.504 9.03699 37.504 9.03699C37.504 9.03699 26.024 9.03699 23.184 9.82099C22.4044 10.0332 21.6934 10.4446 21.121 11.0147C20.5485 11.5849 20.1343 12.2942 19.919 13.073C19.16 15.901 19.16 21.866 19.16 21.866C19.16 21.866 19.16 27.869 19.919 30.723C20.369 32.278 21.603 33.538 23.184 33.975C26.024 34.746 37.504 34.746 37.504 34.746Z" fill="#FF0000"/>
<path id="Vector_4" d="M43.38 21.866L33.853 16.376V27.393L43.38 21.866Z" fill="white"/>
</g>
</g>
</g>
</g>
<defs>
<clipPath id="clip0_125_481">
<rect width="140" height="46" fill="white"/>
</clipPath>
</defs>
</svg>
