<svg width="24" height="24" viewBox="0 0 24 24" fill="none" xmlns="http://www.w3.org/2000/svg">
<path d="M22.5398 6.67043C22.4155 6.20226 22.1704 5.77497 21.8291 5.43134C21.4877 5.0877 21.062 4.83979 20.5947 4.71243C18.8796 4.24951 12 4.24951 12 4.24951C12 4.24951 5.12042 4.24951 3.40442 4.71243C2.93729 4.84002 2.51185 5.08802 2.17065 5.43163C1.82946 5.77524 1.58446 6.20241 1.46017 6.67043C1 8.39743 1 11.9999 1 11.9999C1 11.9999 1 15.6024 1.46017 17.3294C1.58445 17.7976 1.82956 18.2249 2.17094 18.5685C2.51232 18.9122 2.938 19.1601 3.40533 19.2874C5.12042 19.7503 12 19.7503 12 19.7503C12 19.7503 18.8796 19.7503 20.5956 19.2874C21.063 19.1601 21.4887 18.9123 21.8301 18.5686C22.1715 18.225 22.4165 17.7976 22.5408 17.3294C23 15.6024 23 11.9999 23 11.9999C23 11.9999 23 8.39743 22.5398 6.67043ZM9.74958 15.2706V8.72926L15.4998 11.9999L9.74958 15.2706Z" fill="#003558"/>
</svg>
